<?xml version="1.0" encoding="UTF-8" standalone="no"?>
<!-- Created with Inkscape (http://www.inkscape.org/) -->
<svg xmlns:dc="http://purl.org/dc/elements/1.1/" xmlns:cc="http://creativecommons.org/ns#" xmlns:rdf="http://www.w3.org/1999/02/22-rdf-syntax-ns#" xmlns:svg="http://www.w3.org/2000/svg" xmlns="http://www.w3.org/2000/svg" version="1.1" width="354.22244" height="354.22244" id="svg2" xml:space="preserve"><metadata id="metadata8"><rdf:RDF><cc:Work rdf:about=""><dc:format>image/svg+xml</dc:format><dc:type rdf:resource="http://purl.org/dc/dcmitype/StillImage"/><dc:title/></cc:Work></rdf:RDF></metadata><defs id="defs6"/><g transform="matrix(1.25,0,0,-1.25,0,354.22244)" id="g10"><g transform="scale(0.76762909,0.76762909)" id="g12"><path d="m 0,0 369.16,0 0,369.16 L 0,369.16 0,0 z" id="path14" style="fill:#6caddf;fill-opacity:1;fill-rule:nonzero;stroke:none"/><path d="m 87.9688,35.0586 -41.3165,0 0,185.9764 41.3165,5.606 0,-191.5824" id="path16" style="fill:#ffffff;fill-opacity:1;fill-rule:nonzero;stroke:none"/><path d="m 159.785,35.0586 -41.062,0 0,117.4214 38.191,0 0.781,-20.585 c 4.7,8.25 10.188,14.238 16.493,17.988 6.292,3.73 14.14,5.594 23.515,5.594 l 3.266,0 0,-43.789 -8.867,0 c -12.778,0 -21.348,-1.454 -25.735,-4.364 -4.394,-2.91 -6.582,-9.9334 -6.582,-21.0545 l 0,-51.2109" id="path18" style="fill:#ffffff;fill-opacity:1;fill-rule:nonzero;stroke:none"/><path d="m 211.008,35.0586 52.515,86.5434 -45.347,0 7.168,30.878 103.086,0 -52.524,-86.4058 50.957,0 -4.82,-31.0156 -111.035,0" id="path20" style="fill:#ffffff;fill-opacity:1;fill-rule:nonzero;stroke:none"/></g></g></svg>